<?xml version="1.0" encoding="UTF-8" standalone="no"?>
<svg
   width="215"
   height="130"
   id="svg1334"
   sodipodi:version="0.32"
   inkscape:version="1.2 (dc2aeda, 2022-05-15)"
   sodipodi:docname="RGU-SUF_flag.svg"
   version="1.1"
   xmlns:inkscape="http://www.inkscape.org/namespaces/inkscape"
   xmlns:sodipodi="http://sodipodi.sourceforge.net/DTD/sodipodi-0.dtd"
   xmlns="http://www.w3.org/2000/svg"
   xmlns:svg="http://www.w3.org/2000/svg"
   xmlns:rdf="http://www.w3.org/1999/02/22-rdf-syntax-ns#"
   xmlns:cc="http://creativecommons.org/ns#"
   xmlns:dc="http://purl.org/dc/elements/1.1/">
  <metadata
     id="metadata1343">
    <rdf:RDF>
      <cc:Work
         rdf:about="">
        <dc:format>image/svg+xml</dc:format>
        <dc:type
           rdf:resource="http://purl.org/dc/dcmitype/StillImage" />
      </cc:Work>
    </rdf:RDF>
  </metadata>
  <defs
     id="defs1341" />
  <sodipodi:namedview
     inkscape:window-height="874"
     inkscape:window-width="1512"
     inkscape:pageshadow="2"
     inkscape:pageopacity="0.0"
     borderopacity="1.0"
     bordercolor="#666666"
     pagecolor="#ffffff"
     id="base"
     inkscape:zoom="2.9000001"
     inkscape:cx="104.31034"
     inkscape:cy="74.827585"
     inkscape:window-x="0"
     inkscape:window-y="38"
     inkscape:current-layer="svg1334"
     inkscape:document-rotation="0"
     showgrid="false"
     inkscape:window-maximized="1"
     inkscape:showpageshadow="2"
     inkscape:pagecheckerboard="0"
     inkscape:deskcolor="#d1d1d1" />
  <rect
     id="rect1336"
     height="130"
     width="215"
     y="-130"
     x="0"
     style="fill:#000000"
     transform="scale(1,-1)" />
  <path
     style="fill:#ff0000;fill-opacity:1"
     id="path1338"
     d="M 0,130 H 215 L 0,0 Z" />
  <path
     style="font-style:normal;font-variant:normal;font-weight:normal;font-stretch:normal;font-size:17.6619px;line-height:125%;font-family:Helvetica;text-align:start;writing-mode:lr-tb;text-anchor:start;display:none;fill:#ffffff;fill-opacity:1;stroke:none;stroke-width:1px;stroke-linecap:butt;stroke-linejoin:miter;stroke-opacity:1"
     d="m 166.59282,9.7962878 c 2.7755,0 5.55101,0 8.32652,0 0,0.5461032 0,1.0922072 0,1.6383102 -2.23348,0 -4.46696,0 -6.70044,0 0,1.353123 0,2.706246 0,4.059368 1.96384,0 3.92766,0 5.89149,0 0,0.530934 0,1.061868 0,1.592802 -1.96383,0 -3.92765,0 -5.89149,0 0,2.026651 0,4.0533 0,6.079951 -0.54203,0 -1.08406,0 -1.62608,0 0,-4.45681 0,-8.913621 0,-13.3704312 z m 10.23042,11.3862562 c 0.56927,0 1.13854,0 1.70781,0 0,0.661392 0,1.322783 0,1.984175 -0.56927,0 -1.13854,0 -1.70781,0 0,-0.661392 0,-1.322783 0,-1.984175 z m 10.64717,-3.495063 c -0.6074,-1.969006 -1.2148,-3.938012 -1.82219,-5.907016 -0.64553,1.969004 -1.29106,3.93801 -1.93659,5.907016 1.25292,0 2.50585,0 3.75878,0 z M 184.7984,9.7962878 c 0.61285,0 1.22569,0 1.83854,0 1.45176,4.4568102 2.90353,8.9136212 4.35529,13.3704312 -0.59379,0 -1.18757,0 -1.78134,0 -0.40584,-1.334919 -0.81168,-2.669839 -1.21751,-4.004757 -1.58251,0 -3.16501,0 -4.74752,0 -0.43308,1.334918 -0.86615,2.669838 -1.29922,4.004757 -0.55565,0 -1.1113,0 -1.66695,0 1.50624,-4.45681 3.01247,-8.913621 4.51871,-13.3704312 z m 7.84443,11.3862562 c 0.56926,0 1.13852,0 1.70778,0 0,0.661392 0,1.322783 0,1.984175 -0.56926,0 -1.13852,0 -1.70778,0 0,-0.661392 0,-1.322783 0,-1.984175 z m 4.85373,-11.3862562 c 0.54748,0 1.09495,0 1.64243,0 0,4.4568102 0,8.9136212 0,13.3704312 -0.54748,0 -1.09495,0 -1.64243,0 0,-4.45681 0,-8.913621 0,-13.3704312 z m 4.42882,11.3862562 c 0.56926,0 1.13853,0 1.70779,0 0,0.661392 0,1.322783 0,1.984175 -0.56926,0 -1.13853,0 -1.70779,0 0,-0.661392 0,-1.322783 0,-1.984175 z"
     id="text2196" />
  <path
     style="font-style:normal;font-weight:normal;font-size:16.4452px;line-height:125%;font-family:'Bitstream Vera Sans';display:none;fill:#ffffff;fill-opacity:1;stroke:none;stroke-width:1px;stroke-linecap:butt;stroke-linejoin:miter;stroke-opacity:1"
     d="m 19.699072,108.58495 c -0.481905,-0.14361 -1.377469,0.31988 -1.538546,-0.29458 -0.556937,-2.54037 -3.663299,-2.99759 -5.271873,-1.46888 -1.574475,1.5609 -1.610027,4.27061 -1.181964,6.41288 0.34113,1.74571 1.7979,3.07789 3.405846,2.94129 1.732662,0.13774 3.026679,-1.62427 3.2242,-3.43329 0.426905,0.1341 1.414963,-0.28691 1.440149,0.24456 -0.239611,2.55118 -2.254394,4.72001 -4.56862,4.67331 -2.32733,0.25678 -4.590454,-1.64549 -5.021314,-4.23938 -0.6214981,-2.88829 -0.184313,-6.53031 2.263938,-8.1816 2.171447,-1.36256 5.499811,-0.98691 6.77535,1.66127 0.263049,0.5145 0.426536,1.09291 0.472834,1.68442 z m 2.088919,6.90064 c 0.527275,0 1.05455,0 1.581824,0 0,0.61907 0,1.23814 0,1.85721 -0.527274,0 -1.054549,0 -1.581824,0 0,-0.61907 0,-1.23814 0,-1.85721 z m 4.155129,-10.65766 c 0.592869,0 1.185738,0 1.778607,0 1.871953,3.37932 3.743907,6.75865 5.61586,10.13798 0,-3.37933 0,-6.75866 0,-10.13798 0.434345,0.11103 1.271842,-0.23174 1.430453,0.18965 0,4.10841 0,8.21682 0,12.32522 -0.562595,0 -1.125188,0 -1.687782,0 -1.899705,-3.37648 -3.79941,-6.75297 -5.699115,-10.12946 0,3.37649 0,6.75298 0,10.12946 -0.444875,-0.0704 -1.136068,0.13645 -1.438023,-0.0948 0,-4.14001 0,-8.28002 0,-12.42004 z m 11.345245,10.65766 c 0.527275,0 1.05455,0 1.581825,0 0,0.61907 0,1.23814 0,1.85721 -0.527275,0 -1.05455,0 -1.581825,0 0,-0.61907 0,-1.23814 0,-1.85721 z m 12.245903,-10.65766 c -0.125422,0.45061 0.277182,1.49558 -0.252732,1.49088 -1.164565,0 -2.329131,0 -3.493698,0 0,3.67466 0,7.34933 0,11.02399 -0.509614,0 -1.019229,0 -1.528845,0 0,-3.67466 0,-7.34933 0,-11.02399 -1.248809,0 -2.497619,0 -3.746429,0 0.125422,-0.45061 -0.277182,-1.49557 0.252731,-1.49088 2.922991,0 5.845982,0 8.768973,0 z m 1.528848,10.65766 c 0.527275,0 1.05455,0 1.581825,0 0,0.61907 0,1.23814 0,1.85721 -0.527275,0 -1.05455,0 -1.581825,0 0,-0.61907 0,-1.23814 0,-1.85721 z"
     id="text3073" />
  <text
     xml:space="preserve"
     style="font-size:18.6667px;line-height:0px;font-family:Oswald;-inkscape-font-specification:Oswald;fill:#ffffff;stroke-width:18.8976;letter-spacing:-2.01px;fill-opacity:1"
     x="164.82903"
     y="23.114487"
     id="text10433"><tspan
       sodipodi:role="line"
       id="tspan10431"
       x="164.82903"
       y="23.114487"
       style="font-style:normal;font-variant:normal;font-weight:normal;font-stretch:normal;font-size:18.6667px;font-family:Helvetica;-inkscape-font-specification:Helvetica;fill:#ffffff;fill-opacity:1">S.U.F.</tspan></text>
  <text
     xml:space="preserve"
     style="font-size:18.6667px;line-height:0px;font-family:Oswald;-inkscape-font-specification:Oswald;letter-spacing:-2.14px;fill:#ffffff;fill-opacity:1;stroke-width:18.8976"
     x="8.6066008"
     y="117.47665"
     id="text10487"><tspan
       sodipodi:role="line"
       id="tspan10485"
       x="8.6066008"
       y="117.47665"
       style="font-style:normal;font-variant:normal;font-weight:normal;font-stretch:normal;font-size:18.6667px;font-family:Helvetica;-inkscape-font-specification:Helvetica;fill:#ffffff;fill-opacity:1">R.G.U.</tspan></text>
</svg>
